<svg xmlns="http://www.w3.org/2000/svg" width="570" height="570" viewBox="0 0 570 570" version="1.1"><path d="M 0 285.002 L 0 570.003 285.250 569.752 L 570.500 569.500 570.752 284.750 L 571.003 0 285.502 0 L 0 0 0 285.002 M 0.493 285.500 C 0.493 442.250, 0.609 506.524, 0.750 428.331 C 0.891 350.138, 0.891 221.888, 0.750 143.331 C 0.609 64.774, 0.493 128.750, 0.493 285.500 M 15 287 L 15 558 286 558 L 557 558 557 287 L 557 16 286 16 L 15 16 15 287 M 27.669 28.665 C 27.301 29.032, 27 145.118, 27 286.631 C 27 539.991, 27.030 543.945, 28.934 544.965 C 32 546.606, 541.084 546.393, 543.315 544.750 C 544.905 543.579, 544.996 527.210, 544.756 286 L 544.500 28.500 286.419 28.248 C 144.474 28.110, 28.036 28.297, 27.669 28.665 M 40.669 40.665 C 40.301 41.032, 40 151.958, 40 287.167 L 40 533 286.002 533 L 532.004 533 531.752 286.750 L 531.500 40.500 286.419 40.248 C 151.624 40.109, 41.036 40.297, 40.669 40.665 M 116.923 126.923 L 114 129.846 114 197.423 L 114 265 193.500 265 L 273 265 273 197.089 L 273 129.178 269.923 126.589 L 266.847 124 193.346 124 L 119.846 124 116.923 126.923 M 120.408 132.379 C 120.114 133.145, 120.015 135.735, 120.187 138.136 L 120.500 142.500 193.500 142.500 L 266.500 142.500 266.500 137 L 266.500 131.500 193.721 131.243 C 132.286 131.027, 120.859 131.204, 120.408 132.379 M 120 203.994 L 120 258 193.509 258 L 267.017 258 266.759 204.250 L 266.500 150.500 193.250 150.244 L 120 149.987 120 203.994 M 287.748 279.752 C 222.437 345.065, 169 399.202, 169 400.055 C 169 402.009, 175.702 408.606, 176.735 407.670 C 177.156 407.288, 231.164 353.340, 296.753 287.784 L 416.007 168.591 412.300 164.796 C 410.262 162.708, 408.122 161, 407.545 161 C 406.969 161, 353.060 214.438, 287.748 279.752 M 203.615 164.465 C 202.727 165.820, 202 167.228, 202 167.593 C 202 168.196, 191.573 193.802, 178.860 224.420 C 174.510 234.896, 174.088 236.517, 175.378 237.806 C 176.185 238.613, 177.555 239.001, 178.424 238.668 C 180.295 237.950, 180.605 237.280, 191.030 211.500 C 195.478 200.500, 199.521 190.600, 200.014 189.500 C 201.149 186.969, 205.494 176.359, 208.012 169.969 C 209.747 165.567, 209.786 164.928, 208.398 163.541 C 206.295 161.438, 205.497 161.592, 203.615 164.465 M 151.772 188.621 C 140.744 194.888, 138.267 197.005, 139.546 199.075 C 140.069 199.920, 147.709 204.556, 158.192 210.389 C 163.293 213.227, 166.524 213.713, 167.246 211.750 C 168.141 209.315, 166.727 207.896, 158.908 203.386 C 154.559 200.878, 151 198.230, 151 197.503 C 151 196.776, 154.292 194.374, 158.315 192.166 C 166.406 187.725, 168.511 185.773, 167.643 183.513 C 166.636 180.887, 163.743 181.818, 151.772 188.621 M 219.357 183.513 C 218.491 185.769, 220.522 187.640, 228.236 191.693 C 232.065 193.705, 235.448 196.005, 235.755 196.804 C 236.393 198.467, 233.536 200.873, 227.110 204.086 C 224.695 205.293, 221.893 207.107, 220.883 208.117 C 218.721 210.279, 219.407 213, 222.113 213 C 224.017 213, 244.368 201.950, 246.787 199.603 C 248.968 197.487, 247.169 195.383, 239.182 190.711 C 224.096 181.885, 220.484 180.574, 219.357 183.513 M 424.236 350.996 C 403.244 355.447, 392.770 372.014, 400.942 387.842 C 405.088 395.872, 413.223 401.315, 429.823 407.166 C 446.060 412.889, 449 415.274, 449 422.723 C 449 429.953, 444.376 433, 433.403 433 C 422.884 433, 416.863 429.117, 415.415 421.399 L 414.777 418 404.761 418 L 394.744 418 395.414 422.250 C 397.429 435.037, 408.237 444.830, 423.935 448.091 C 436.032 450.604, 452.486 447.681, 460.456 441.602 C 465.318 437.893, 469.001 429.892, 468.994 423.054 C 468.986 414.906, 467.478 410.748, 462.538 405.253 C 457.311 399.440, 449.972 395.343, 437 391 C 422.585 386.174, 418 382.717, 418 376.677 C 418 372.280, 423.459 367.354, 429.304 366.477 C 438.966 365.028, 446.573 368.650, 448.845 375.780 L 450.190 380 459.595 380 L 469 380 469 376.660 C 469 371.516, 463.431 361.325, 458.777 357.954 C 450.167 351.717, 435.127 348.687, 424.236 350.996 M 306.458 352.250 C 306.195 352.938, 306.096 374.650, 306.239 400.500 L 306.500 447.500 316 447.500 L 325.500 447.500 326 430.500 L 326.500 413.500 334.500 413.500 L 342.500 413.500 351.295 430.750 L 360.090 448 370.545 448 C 377.641 448, 381 447.637, 381 446.872 C 381 446.251, 379.707 443.439, 378.127 440.622 C 376.547 437.805, 372.039 429.340, 368.108 421.811 L 360.962 408.122 365.451 405.034 C 376.354 397.532, 380.524 384.861, 376.523 371.388 C 373.642 361.689, 365.519 354.979, 353.500 352.372 C 345.255 350.583, 307.135 350.485, 306.458 352.250 M 327.221 367.773 C 326.261 368.434, 326.011 372.137, 326.221 382.577 L 326.500 396.500 337 396.469 C 345.087 396.445, 348.257 396.032, 350.794 394.671 C 360.064 389.696, 360.448 375.271, 351.467 369.387 C 348.525 367.459, 329.514 366.193, 327.221 367.773" stroke="none" fill="#e9ebec" fill-rule="evenodd"/><path d="M 15 287 L 15 558 286 558 L 557 558 557 287 L 557 16 286 16 L 15 16 15 287 M 27.669 28.665 C 27.301 29.032, 27 145.118, 27 286.631 C 27 539.991, 27.030 543.945, 28.934 544.965 C 32 546.606, 541.084 546.393, 543.315 544.750 C 544.905 543.579, 544.996 527.210, 544.756 286 L 544.500 28.500 286.419 28.248 C 144.474 28.110, 28.036 28.297, 27.669 28.665 M 40.669 40.665 C 40.301 41.032, 40 151.958, 40 287.167 L 40 533 286.002 533 L 532.004 533 531.752 286.750 L 531.500 40.500 286.419 40.248 C 151.624 40.109, 41.036 40.297, 40.669 40.665 M 116.923 126.923 L 114 129.846 114 197.423 L 114 265 193.500 265 L 273 265 273 197.089 L 273 129.178 269.923 126.589 L 266.847 124 193.346 124 L 119.846 124 116.923 126.923 M 120.408 132.379 C 120.114 133.145, 120.015 135.735, 120.187 138.136 L 120.500 142.500 193.500 142.500 L 266.500 142.500 266.500 137 L 266.500 131.500 193.721 131.243 C 132.286 131.027, 120.859 131.204, 120.408 132.379 M 120 203.994 L 120 258 193.509 258 L 267.017 258 266.759 204.250 L 266.500 150.500 193.250 150.244 L 120 149.987 120 203.994 M 287.748 279.752 C 222.437 345.065, 169 399.202, 169 400.055 C 169 402.009, 175.702 408.606, 176.735 407.670 C 177.156 407.288, 231.164 353.340, 296.753 287.784 L 416.007 168.591 412.300 164.796 C 410.262 162.708, 408.122 161, 407.545 161 C 406.969 161, 353.060 214.438, 287.748 279.752 M 203.615 164.465 C 202.727 165.820, 202 167.228, 202 167.593 C 202 168.196, 191.573 193.802, 178.860 224.420 C 174.510 234.896, 174.088 236.517, 175.378 237.806 C 176.185 238.613, 177.555 239.001, 178.424 238.668 C 180.295 237.950, 180.605 237.280, 191.030 211.500 C 195.478 200.500, 199.521 190.600, 200.014 189.500 C 201.149 186.969, 205.494 176.359, 208.012 169.969 C 209.747 165.567, 209.786 164.928, 208.398 163.541 C 206.295 161.438, 205.497 161.592, 203.615 164.465 M 151.772 188.621 C 140.744 194.888, 138.267 197.005, 139.546 199.075 C 140.069 199.920, 147.709 204.556, 158.192 210.389 C 163.293 213.227, 166.524 213.713, 167.246 211.750 C 168.141 209.315, 166.727 207.896, 158.908 203.386 C 154.559 200.878, 151 198.230, 151 197.503 C 151 196.776, 154.292 194.374, 158.315 192.166 C 166.406 187.725, 168.511 185.773, 167.643 183.513 C 166.636 180.887, 163.743 181.818, 151.772 188.621 M 219.357 183.513 C 218.491 185.769, 220.522 187.640, 228.236 191.693 C 232.065 193.705, 235.448 196.005, 235.755 196.804 C 236.393 198.467, 233.536 200.873, 227.110 204.086 C 224.695 205.293, 221.893 207.107, 220.883 208.117 C 218.721 210.279, 219.407 213, 222.113 213 C 224.017 213, 244.368 201.950, 246.787 199.603 C 248.968 197.487, 247.169 195.383, 239.182 190.711 C 224.096 181.885, 220.484 180.574, 219.357 183.513 M 424.236 350.996 C 403.244 355.447, 392.770 372.014, 400.942 387.842 C 405.088 395.872, 413.223 401.315, 429.823 407.166 C 446.060 412.889, 449 415.274, 449 422.723 C 449 429.953, 444.376 433, 433.403 433 C 422.884 433, 416.863 429.117, 415.415 421.399 L 414.777 418 404.761 418 L 394.744 418 395.414 422.250 C 397.429 435.037, 408.237 444.830, 423.935 448.091 C 436.032 450.604, 452.486 447.681, 460.456 441.602 C 465.318 437.893, 469.001 429.892, 468.994 423.054 C 468.986 414.906, 467.478 410.748, 462.538 405.253 C 457.311 399.440, 449.972 395.343, 437 391 C 422.585 386.174, 418 382.717, 418 376.677 C 418 372.280, 423.459 367.354, 429.304 366.477 C 438.966 365.028, 446.573 368.650, 448.845 375.780 L 450.190 380 459.595 380 L 469 380 469 376.660 C 469 371.516, 463.431 361.325, 458.777 357.954 C 450.167 351.717, 435.127 348.687, 424.236 350.996 M 306.458 352.250 C 306.195 352.938, 306.096 374.650, 306.239 400.500 L 306.500 447.500 316 447.500 L 325.500 447.500 326 430.500 L 326.500 413.500 334.500 413.500 L 342.500 413.500 351.295 430.750 L 360.090 448 370.545 448 C 377.641 448, 381 447.637, 381 446.872 C 381 446.251, 379.707 443.439, 378.127 440.622 C 376.547 437.805, 372.039 429.340, 368.108 421.811 L 360.962 408.122 365.451 405.034 C 376.354 397.532, 380.524 384.861, 376.523 371.388 C 373.642 361.689, 365.519 354.979, 353.500 352.372 C 345.255 350.583, 307.135 350.485, 306.458 352.250 M 327.221 367.773 C 326.261 368.434, 326.011 372.137, 326.221 382.577 L 326.500 396.500 337 396.469 C 345.087 396.445, 348.257 396.032, 350.794 394.671 C 360.064 389.696, 360.448 375.271, 351.467 369.387 C 348.525 367.459, 329.514 366.193, 327.221 367.773" stroke="none" fill="#3e3e3d" fill-rule="evenodd"/></svg>